<svg width="80" height="80" viewBox="0 0 80 80" fill="none" xmlns="http://www.w3.org/2000/svg">
<path d="M40 0C62.0971 0 80 17.9029 80 40C80 61.9657 62.1886 80 40 80C17.8571 80 0 62.0086 0 40C0 17.9029 17.9029 0 40 0ZM67.6343 60.3114C71.7857 54.5971 74.2857 47.5886 74.2857 40C74.2857 21.1171 58.8829 5.71429 40 5.71429C21.1171 5.71429 5.71429 21.1171 5.71429 40C5.71429 47.5886 8.21429 54.5971 12.3657 60.3114C13.9714 52.32 17.8571 45.7143 26.0257 45.7143C29.6429 49.24 34.5514 51.4286 40 51.4286C45.4486 51.4286 50.3571 49.24 53.9743 45.7143C62.1429 45.7143 66.0286 52.32 67.6343 60.3114ZM57.1429 31.4286C57.1429 21.9629 49.4629 14.2857 40 14.2857C30.5371 14.2857 22.8571 21.9657 22.8571 31.4286C22.8571 40.8914 30.5371 48.5714 40 48.5714C49.4629 48.5714 57.1429 40.8914 57.1429 31.4286Z" fill="#464A5A"/>
</svg>
